<svg viewBox="0 0 80 80" fill="none" xmlns="http://www.w3.org/2000/svg">
    <rect width="80" height="80" fill="black"/>
    <path d="M21.8216 56.4029C21.8216 56.4029 24.6304 56.4092 24.6345 56.4057C26.8313 56.4057 27.0771 55.2499 28.0254 54.0606C28.9724 52.8714 29.473 52.3081 30.0544 52.7495C32.0973 54.3865 33.7976 55.6307 35.2856 54.5104C37.9809 52.4459 39.1708 47.386 41.6935 44.477C42.2825 43.7243 43.5971 42.6075 44.2224 41.8861C44.5155 41.577 44.347 41.2838 44.0448 41.4655C42.7727 42.3199 39.9054 44.1887 37.7825 48.1366C35.821 51.7141 34.4041 52.9354 32.8214 51.9871C32.0103 51.5338 31.5117 50.8814 30.4088 50.1092C29.3052 49.337 28.2295 50.9204 27.6627 51.4878C27.0952 52.0553 25.9408 53.6992 24.9479 53.8879C23.955 54.0773 22.8437 53.7939 22.1586 55.1649C21.7568 55.9448 21.8216 56.4029 21.8216 56.4029Z" fill="#F29111"/>
    <path d="M47.8013 28.8719C48.9578 30.4288 48.8722 31.7573 47.937 33.0175C47.2714 34.0244 46.8655 34.8655 46.7367 36.2288C46.5668 38.4799 48.272 40.5534 50.3149 40.7574C51.3391 40.7999 52.2255 40.4601 52.9538 39.7402C55.3699 37.3512 55.3587 31.5331 55.342 30.6551L56.3955 30.6418C56.5041 30.921 56.8641 31.7691 57.598 32.856C60.3009 36.8582 62.5465 37.8393 64.345 37.4752C65.5767 37.1932 62.0075 34.573 61.7179 34.2945C61.4275 34.0153 61.6155 33.7835 62.1336 34.0752C62.2993 34.1685 69.1702 37.7404 67.1176 39.2416C65.3957 40.4163 62.474 40.1008 60.2661 38.2202C58.0352 36.2539 56.1476 32.4452 56.1295 32.4069L56.007 32.159C56.007 32.159 55.9903 32.1249 55.9889 32.1625C55.9923 32.2885 56.0014 32.6499 56.0035 32.7356C56.1107 38.6644 54.2461 41.8443 50.6929 42.1869C47.9962 42.3972 44.888 40.4163 44.4891 37.1138C44.04 32.3456 47.1523 29.4247 47.8013 28.8719Z" fill="#F29111"/>
    <path d="M22.4162 17.9918C22.4162 17.9918 22.8583 17.1444 24.0072 17.6743C24.911 18.1115 26.7617 19.9991 28.7294 24.009C32.2087 31.249 31.376 27.6123 29.7689 23.8057C29.1019 22.2252 28.3283 20.6662 27.474 19.4171C26.6092 18.1533 25.2048 16.6312 23.9981 15.9482C22.1704 14.9295 21.7686 15.9273 21.8961 16.8756C21.9671 17.4675 22.4162 17.9918 22.4162 17.9918Z" fill="#F29111"/>
    <path d="M10.9491 57.1257C11.5987 56.3354 12.1913 56.0429 13.6855 56.0429C15.1971 56.0429 15.6852 55.6224 16.949 53.2327C18.3457 50.591 19.684 49.7179 20.8677 48.9457C21.949 48.3393 23.4738 47.5678 24.2196 45.731C24.3797 45.3773 24.5879 44.7987 24.8281 44.1288L24.8455 44.0808C25.1122 43.3372 25.4248 42.4675 25.7528 41.6807L25.7563 41.6967C25.7563 41.6967 26.7694 39.1239 26.3035 42.6081C26.094 44.1762 26.1887 45.1663 26.3558 45.7888C26.5103 46.2177 26.7805 46.6807 27.2554 47.0846C27.912 47.6437 27.0799 47.3638 25.961 47.808C25.7013 47.9103 25.4401 48.0942 25.1728 48.3184C24.5197 48.9958 23.673 49.7151 22.6655 50.2318C20.0398 51.5763 18.6451 54.2333 17.7594 55.3689L17.5241 55.7087C16.2882 57.4954 15.6079 58.4785 14.2537 58.4785C14.2537 58.4785 10.5028 58.482 10.5 58.4785C10.5084 58.2599 10.5648 57.5949 10.9491 57.1257Z" fill="#F29111"/>
    <path d="M36.4762 27.9723C38.0902 25.3647 41.4567 22.4723 45.8259 22.4723C46.1023 22.4723 46.3843 22.4842 46.6691 22.5085C46.6733 22.5085 46.6768 22.5099 46.6796 22.5099C47.3132 21.5059 48.2511 20.1948 49.0337 19.8188C49.9437 19.3822 51.1574 19.7255 51.5577 20.976C51.8307 21.8283 51.6169 23.4367 51.376 23.264C51.0689 23.044 51.1031 20.2143 49.5838 21.1696C48.9968 21.54 48.5526 22.5343 48.4091 22.888C50.0308 23.3907 51.2569 24.2597 52.0681 25.4824C52.5882 26.3061 53.4363 28.17 52.8786 30.4281C52.6321 31.4265 52.4866 30.1892 52.2185 28.89C51.9692 27.7961 51.6482 26.579 50.3831 25.5339C49.1179 24.4888 47.2477 23.8343 45.0315 24.0787C42.8848 24.3203 40.9603 25.3793 39.5371 27.0622C39.1848 27.4779 38.3381 28.734 38.18 28.9777C37.2324 30.4406 36.69 31.2748 34.8191 31.256C35.1178 30.4622 35.624 29.3488 36.4762 27.9723Z" fill="#F29111"/>
    <path d="M18.9912 16.5136C20.0022 17.1332 21.2443 18.1422 22.5735 19.6984C24.0253 21.4001 25.6873 23.7827 27.513 26.7816C28.5762 28.5272 28.8854 29.5396 28.8283 29.6594C28.8269 29.6594 28.8269 29.6594 28.8269 29.6594C28.7976 29.6594 28.4112 29.6099 26.6928 27.2105C22.9036 21.7064 19.5781 18.0614 18.7711 18.523L18.7684 18.5244C18.6723 18.5843 18.6214 18.7082 18.6187 18.8934C18.6806 21.0512 23.2733 29.1671 29.8372 33.028C28.8784 35.4622 29.2328 37.4919 30.3413 39.4958C31.1009 40.8688 33.8902 43.686 36.4665 42.95C39.0434 42.2134 38.2316 35.0751 33.9947 33.6407C32.7831 33.2696 32.0179 34.0286 31.7471 35.0528C31.4908 36.0199 31.6099 37.2078 31.6921 37.7732C31.722 37.9793 31.6266 37.9208 31.5709 37.8303C30.0252 35.293 31.2019 33.0384 32.6453 32.5824C34.3303 32.0504 36.6273 33.2578 38.0157 35.5444C40.248 39.5396 39.1966 42.9229 37.4086 43.9924C34.1966 45.9559 28.9438 42.5295 27.8444 38.5036C27.4322 36.8297 27.6864 35.0973 28.3074 33.6881C18.9933 27.2112 16.903 21.1362 16.4894 18.0795C16.2652 16.0749 17.6432 15.6878 18.9912 16.5136Z" fill="#F29111"/>
    <path d="M61.0513 48.7099C60.0699 48.7145 59.1326 48.7982 58.3079 48.9441C55.8785 49.3733 55.4374 50.2717 55.4374 51.9284V54.1164H61.1784V54.8457H53.2829C51.6144 54.8457 50.1534 55.8486 49.6964 57.7564C49.1693 59.9431 49.1459 61.3077 49.6964 63.5911C50.1045 65.2907 51.0791 66.5017 52.7476 66.5017H54.7215V63.8788C54.7215 61.9839 56.361 60.3124 58.3079 60.3124H64.0423C65.6385 60.3124 66.9128 58.9981 66.9128 57.3951V51.9284C66.9128 50.3725 65.6002 49.2038 64.0423 48.9441C63.056 48.7799 62.0327 48.7054 61.0513 48.7099ZM57.9466 50.4697C58.5396 50.4697 59.0239 50.9619 59.0239 51.567C59.0239 52.1701 58.5396 52.6577 57.9466 52.6577C57.3515 52.6577 56.8693 52.1701 56.8693 51.567C56.8693 50.9619 57.3515 50.4697 57.9466 50.4697Z" fill="url(#paint0_linear_1608_61)"/>
    <path d="M67.6287 54.8457V57.3951C67.6287 59.3715 65.953 61.0351 64.0422 61.0351H58.3079C56.7372 61.0351 55.4374 62.3794 55.4374 63.9524V69.4191C55.4374 70.9749 56.7903 71.8901 58.3079 72.3364C60.1252 72.8708 61.8679 72.9674 64.0422 72.3364C65.4876 71.918 66.9128 71.0758 66.9127 69.4191V67.2311H61.1784V66.5017H69.7833C71.4518 66.5017 72.0735 65.3379 72.6538 63.5911C73.2532 61.7927 73.2277 60.0633 72.6538 57.7564C72.2414 56.0954 71.4539 54.8457 69.7833 54.8457H67.6287ZM64.4036 68.6898C64.9987 68.6898 65.4808 69.1774 65.4808 69.7804C65.4808 70.3856 64.9987 70.8778 64.4036 70.8778C63.8106 70.8778 63.3263 70.3856 63.3263 69.7804C63.3263 69.1774 63.8106 68.6898 64.4036 68.6898Z" fill="url(#paint1_linear_1608_61)"/>
    <defs>
        <linearGradient id="paint0_linear_1608_61" x1="49.2922" y1="48.7097" x2="67.1937" y2="63.9444" gradientUnits="userSpaceOnUse">
            <stop stop-color="#5A9FD4"/>
            <stop offset="1" stop-color="#306998"/>
        </linearGradient>
        <linearGradient id="paint1_linear_1608_61" x1="64.2656" y1="69.5965" x2="59.5162" y2="62.9412" gradientUnits="userSpaceOnUse">
            <stop stop-color="#FFD43B"/>
            <stop offset="1" stop-color="#FFE873"/>
        </linearGradient>
    </defs>
</svg>