<svg viewBox="0 0 80 80" fill="none" xmlns="http://www.w3.org/2000/svg">
    <rect width="80" height="80" fill="black"/>
    <path d="M21.8216 56.4029C21.8216 56.4029 24.6304 56.4092 24.6345 56.4057C26.8313 56.4057 27.0771 55.2499 28.0254 54.0606C28.9724 52.8714 29.473 52.3081 30.0544 52.7495C32.0973 54.3865 33.7976 55.6307 35.2856 54.5104C37.9809 52.4459 39.1708 47.386 41.6935 44.477C42.2825 43.7243 43.5971 42.6075 44.2224 41.8861C44.5155 41.577 44.347 41.2838 44.0448 41.4655C42.7727 42.3199 39.9054 44.1887 37.7825 48.1366C35.821 51.7141 34.4041 52.9354 32.8214 51.9871C32.0103 51.5338 31.5117 50.8814 30.4088 50.1092C29.3052 49.337 28.2295 50.9204 27.6627 51.4878C27.0952 52.0553 25.9408 53.6992 24.9479 53.8879C23.955 54.0773 22.8437 53.7939 22.1586 55.1649C21.7568 55.9448 21.8216 56.4029 21.8216 56.4029Z" fill="#F29111"/>
    <path d="M47.8013 28.8719C48.9578 30.4288 48.8722 31.7573 47.937 33.0175C47.2714 34.0244 46.8655 34.8655 46.7367 36.2288C46.5668 38.4799 48.272 40.5534 50.3149 40.7574C51.3391 40.7999 52.2255 40.4601 52.9538 39.7402C55.3699 37.3512 55.3587 31.5331 55.342 30.6551L56.3955 30.6418C56.5041 30.921 56.8641 31.7691 57.598 32.856C60.3009 36.8582 62.5465 37.8393 64.345 37.4752C65.5767 37.1932 62.0075 34.573 61.7179 34.2945C61.4275 34.0153 61.6155 33.7835 62.1336 34.0752C62.2993 34.1685 69.1702 37.7404 67.1176 39.2416C65.3957 40.4163 62.474 40.1008 60.2661 38.2202C58.0352 36.2539 56.1476 32.4452 56.1295 32.4069L56.007 32.159C56.007 32.159 55.9903 32.1249 55.9889 32.1625C55.9923 32.2885 56.0014 32.6499 56.0035 32.7356C56.1107 38.6644 54.2461 41.8443 50.6929 42.1869C47.9962 42.3972 44.888 40.4163 44.4891 37.1138C44.04 32.3456 47.1523 29.4247 47.8013 28.8719Z" fill="#F29111"/>
    <path d="M22.4162 17.9918C22.4162 17.9918 22.8583 17.1444 24.0072 17.6743C24.911 18.1115 26.7617 19.9991 28.7294 24.009C32.2087 31.249 31.376 27.6123 29.7689 23.8057C29.1019 22.2252 28.3283 20.6662 27.474 19.4171C26.6092 18.1533 25.2048 16.6312 23.9981 15.9482C22.1704 14.9295 21.7686 15.9273 21.8961 16.8756C21.9671 17.4675 22.4162 17.9918 22.4162 17.9918Z" fill="#F29111"/>
    <path d="M10.9491 57.1257C11.5987 56.3354 12.1913 56.0429 13.6855 56.0429C15.1971 56.0429 15.6852 55.6224 16.949 53.2327C18.3457 50.591 19.684 49.7179 20.8677 48.9457C21.949 48.3393 23.4738 47.5678 24.2196 45.731C24.3797 45.3773 24.5879 44.7987 24.8281 44.1288L24.8455 44.0808C25.1122 43.3372 25.4248 42.4675 25.7528 41.6807L25.7563 41.6967C25.7563 41.6967 26.7694 39.1239 26.3035 42.6081C26.094 44.1762 26.1887 45.1663 26.3558 45.7888C26.5103 46.2177 26.7805 46.6807 27.2554 47.0846C27.912 47.6437 27.0799 47.3638 25.961 47.808C25.7013 47.9103 25.4401 48.0942 25.1728 48.3184C24.5197 48.9958 23.673 49.7151 22.6655 50.2318C20.0398 51.5763 18.6451 54.2333 17.7594 55.3689L17.5241 55.7087C16.2882 57.4954 15.6079 58.4785 14.2537 58.4785C14.2537 58.4785 10.5028 58.482 10.5 58.4785C10.5084 58.2599 10.5648 57.5949 10.9491 57.1257Z" fill="#F29111"/>
    <path d="M36.4762 27.9723C38.0902 25.3647 41.4567 22.4723 45.8259 22.4723C46.1023 22.4723 46.3843 22.4842 46.6691 22.5085C46.6733 22.5085 46.6768 22.5099 46.6796 22.5099C47.3132 21.5059 48.2511 20.1948 49.0337 19.8188C49.9437 19.3822 51.1574 19.7255 51.5577 20.976C51.8307 21.8283 51.6169 23.4367 51.376 23.264C51.0689 23.044 51.1031 20.2143 49.5838 21.1696C48.9968 21.54 48.5526 22.5343 48.4091 22.888C50.0308 23.3907 51.2569 24.2597 52.0681 25.4824C52.5882 26.3061 53.4363 28.17 52.8786 30.4281C52.6321 31.4265 52.4866 30.1892 52.2185 28.89C51.9692 27.7961 51.6482 26.579 50.3831 25.5339C49.1179 24.4888 47.2477 23.8343 45.0315 24.0787C42.8848 24.3203 40.9603 25.3793 39.5371 27.0622C39.1848 27.4779 38.3381 28.734 38.18 28.9777C37.2324 30.4406 36.69 31.2748 34.8191 31.256C35.1178 30.4622 35.624 29.3488 36.4762 27.9723Z" fill="#F29111"/>
    <path d="M18.9912 16.5136C20.0022 17.1332 21.2443 18.1422 22.5735 19.6984C24.0253 21.4001 25.6873 23.7827 27.513 26.7816C28.5762 28.5272 28.8854 29.5396 28.8283 29.6594C28.8269 29.6594 28.8269 29.6594 28.8269 29.6594C28.7976 29.6594 28.4112 29.6099 26.6928 27.2105C22.9036 21.7064 19.5781 18.0614 18.7711 18.523L18.7684 18.5244C18.6723 18.5843 18.6214 18.7082 18.6187 18.8934C18.6806 21.0512 23.2733 29.1671 29.8372 33.028C28.8784 35.4622 29.2328 37.4919 30.3413 39.4958C31.1009 40.8688 33.8902 43.686 36.4665 42.95C39.0434 42.2134 38.2316 35.0751 33.9947 33.6407C32.7831 33.2696 32.0179 34.0286 31.7471 35.0528C31.4908 36.0199 31.6099 37.2078 31.6921 37.7732C31.722 37.9793 31.6266 37.9208 31.5709 37.8303C30.0252 35.293 31.2019 33.0384 32.6453 32.5824C34.3303 32.0504 36.6273 33.2578 38.0157 35.5444C40.248 39.5396 39.1966 42.9229 37.4086 43.9924C34.1966 45.9559 28.9438 42.5295 27.8444 38.5036C27.4322 36.8297 27.6864 35.0973 28.3074 33.6881C18.9933 27.2112 16.903 21.1362 16.4894 18.0795C16.2652 16.0749 17.6432 15.6878 18.9912 16.5136Z" fill="#F29111"/>
    <path d="M61.3062 47.8867C60.9711 47.8867 60.6237 47.9736 60.3383 48.1349L51.1065 53.4705C50.5109 53.8179 50.1387 54.4631 50.1387 55.158V65.8043C50.1387 66.4992 50.5109 67.1444 51.1065 67.4919L53.5261 68.8816C54.7049 69.4524 55.102 69.4648 55.648 69.4648C57.3851 69.4648 58.3902 68.4101 58.3902 66.5736V56.0638C58.3902 55.9149 58.2661 55.7908 58.1172 55.7908H56.9632C56.8019 55.7908 56.6779 55.9149 56.6779 56.0638V66.5736C56.6779 67.3926 55.8341 68.1991 54.4816 67.5167L51.9379 66.0649C51.851 66.0029 51.8014 65.9036 51.8014 65.8043V55.158C51.8014 55.0463 51.851 54.947 51.9379 54.8974L61.1697 49.5742C61.2441 49.5246 61.3682 49.5246 61.4426 49.5742L70.6744 54.8974C70.7613 54.947 70.8109 55.0463 70.8109 55.158V65.8043C70.8109 65.9036 70.7613 66.0029 70.6744 66.0649L61.4426 71.3881C61.3682 71.4377 61.2441 71.4377 61.1573 71.3881L58.8245 69.9735C58.7252 69.9363 58.626 69.9239 58.5639 69.9611C57.9063 70.3334 57.7822 70.4078 57.1742 70.5939C57.0253 70.6436 56.7895 70.7304 57.261 70.991L60.3383 72.815C60.6361 72.9887 60.9587 73.0756 61.3062 73.0756C61.6536 73.0756 61.9762 72.9887 62.274 72.815L71.5058 67.4919C72.1014 67.1444 72.4736 66.4992 72.4736 65.8043V55.158C72.4736 54.4631 72.1014 53.8179 71.5058 53.4705L62.274 48.1349C61.9886 47.9736 61.6536 47.8867 61.3062 47.8867ZM63.7878 55.5178C61.1573 55.5178 59.5814 56.6222 59.5814 58.4834C59.5814 60.4812 61.1448 61.0643 63.6761 61.3125C66.6914 61.6103 66.9271 62.057 66.9271 62.6526C66.9271 63.6825 66.0958 64.1168 64.1601 64.1168C61.7032 64.1168 61.1821 63.5088 60.9959 62.2928C60.9711 62.1687 60.8595 62.0694 60.723 62.0694H59.5318C59.3829 62.0694 59.2712 62.1811 59.2712 62.3424C59.2712 63.881 60.115 65.7423 64.1601 65.7423C67.076 65.7423 68.7511 64.5883 68.7511 62.5782C68.7511 60.5804 67.411 60.0593 64.5695 59.6746C61.7032 59.3024 61.4178 59.1038 61.4178 58.4338C61.4178 57.8754 61.666 57.1309 63.7878 57.1309C65.6491 57.1309 66.3812 57.5404 66.6665 58.8184C66.6914 58.9425 66.803 59.0294 66.9271 59.0294H68.1307C68.1928 59.0294 68.2672 59.0046 68.3168 58.9425C68.3665 58.8929 68.4037 58.8184 68.3789 58.744C68.2052 56.5353 66.741 55.5178 63.7878 55.5178Z" fill="#539E42"/>
</svg>
