<svg viewBox="0 0 80 80" fill="none" xmlns="http://www.w3.org/2000/svg">
    <path d="M22.8216 59.4029C22.8216 59.4029 25.6304 59.4092 25.6345 59.4057C27.8313 59.4057 28.0771 58.2499 29.0254 57.0606C29.9724 55.8714 30.473 55.3081 31.0544 55.7495C33.0973 57.3865 34.7976 58.6307 36.2856 57.5104C38.9809 55.4459 40.1708 50.386 42.6935 47.477C43.2825 46.7243 44.5971 45.6075 45.2224 44.8861C45.5155 44.577 45.347 44.2838 45.0448 44.4655C43.7727 45.3199 40.9054 47.1887 38.7825 51.1366C36.821 54.7141 35.4041 55.9354 33.8214 54.9871C33.0103 54.5338 32.5117 53.8814 31.4088 53.1092C30.3052 52.337 29.2295 53.9204 28.6627 54.4878C28.0952 55.0553 26.9408 56.6992 25.9479 56.8879C24.955 57.0773 23.8437 56.7939 23.1586 58.1649C22.7568 58.9448 22.8216 59.4029 22.8216 59.4029Z" fill="#2C7493"/>
    <path d="M48.8013 31.8719C49.9578 33.4288 49.8722 34.7573 48.937 36.0175C48.2714 37.0244 47.8655 37.8655 47.7367 39.2288C47.5668 41.4799 49.272 43.5534 51.3149 43.7574C52.3391 43.7999 53.2255 43.4601 53.9538 42.7402C56.3699 40.3512 56.3587 34.5331 56.342 33.6551L57.3955 33.6418C57.5041 33.921 57.8641 34.7691 58.598 35.856C61.3009 39.8582 63.5465 40.8393 65.345 40.4752C66.5767 40.1932 63.0075 37.573 62.7179 37.2945C62.4275 37.0153 62.6155 36.7835 63.1336 37.0752C63.2993 37.1685 70.1702 40.7404 68.1176 42.2416C66.3957 43.4163 63.474 43.1008 61.2661 41.2202C59.0352 39.2539 57.1476 35.4452 57.1295 35.4069L57.007 35.159C57.007 35.159 56.9903 35.1249 56.9889 35.1625C56.9923 35.2885 57.0014 35.6499 57.0035 35.7356C57.1107 41.6644 55.2461 44.8443 51.6929 45.1869C48.9962 45.3972 45.888 43.4163 45.4891 40.1138C45.04 35.3456 48.1523 32.4247 48.8013 31.8719Z" fill="#2C7493"/>
    <path d="M23.4162 20.9918C23.4162 20.9918 23.8583 20.1444 25.0072 20.6743C25.911 21.1115 27.7617 22.9991 29.7294 27.009C33.2087 34.249 32.376 30.6123 30.7689 26.8057C30.1019 25.2252 29.3283 23.6662 28.474 22.4171C27.6092 21.1533 26.2048 19.6312 24.9981 18.9482C23.1704 17.9295 22.7686 18.9273 22.8961 19.8756C22.9671 20.4675 23.4162 20.9918 23.4162 20.9918Z" fill="#2C7493"/>
    <path d="M11.9491 60.1257C12.5987 59.3354 13.1913 59.0429 14.6855 59.0429C16.1971 59.0429 16.6852 58.6224 17.949 56.2327C19.3457 53.591 20.684 52.7179 21.8677 51.9457C22.949 51.3393 24.4738 50.5678 25.2196 48.731C25.3797 48.3773 25.5879 47.7987 25.8281 47.1288L25.8455 47.0808C26.1122 46.3372 26.4248 45.4675 26.7528 44.6807L26.7563 44.6967C26.7563 44.6967 27.7694 42.1239 27.3035 45.6082C27.094 47.1762 27.1887 48.1663 27.3558 48.7888C27.5103 49.2177 27.7805 49.6807 28.2554 50.0846C28.912 50.6437 28.0799 50.3638 26.961 50.808C26.7013 50.9103 26.4401 51.0942 26.1728 51.3184C25.5197 51.9958 24.673 52.7151 23.6655 53.2318C21.0398 54.5763 19.6451 57.2333 18.7594 58.3689L18.5241 58.7087C17.2882 60.4954 16.6079 61.4785 15.2537 61.4785C15.2537 61.4785 11.5028 61.482 11.5 61.4785C11.5084 61.2599 11.5648 60.5949 11.9491 60.1257Z" fill="#2C7493"/>
    <path d="M37.4762 30.9723C39.0902 28.3647 42.4567 25.4723 46.8259 25.4723C47.1023 25.4723 47.3843 25.4842 47.6691 25.5085C47.6733 25.5085 47.6768 25.5099 47.6796 25.5099C48.3132 24.5059 49.2511 23.1948 50.0337 22.8188C50.9437 22.3822 52.1574 22.7255 52.5577 23.976C52.8307 24.8283 52.6169 26.4367 52.376 26.264C52.0689 26.044 52.1031 23.2143 50.5838 24.1696C49.9968 24.54 49.5526 25.5343 49.4091 25.888C51.0308 26.3907 52.2569 27.2597 53.0681 28.4824C53.5882 29.3061 54.4363 31.17 53.8786 33.4281C53.6321 34.4265 53.4866 33.1892 53.2185 31.89C52.9692 30.7961 52.6482 29.579 51.3831 28.5339C50.118 27.4888 48.2477 26.8343 46.0315 27.0787C43.8848 27.3203 41.9603 28.3793 40.5371 30.0622C40.1848 30.4779 39.3381 31.734 39.18 31.9777C38.2324 33.4406 37.69 34.2748 35.8191 34.256C36.1178 33.4622 36.624 32.3488 37.4762 30.9723Z" fill="#2C7493"/>
    <path d="M19.9912 19.5136C21.0022 20.1332 22.2443 21.1422 23.5735 22.6984C25.0253 24.4001 26.6873 26.7827 28.513 29.7816C29.5762 31.5272 29.8854 32.5396 29.8283 32.6594C29.8269 32.6594 29.8269 32.6594 29.8269 32.6594C29.7976 32.6594 29.4112 32.6099 27.6928 30.2105C23.9036 24.7064 20.5781 21.0614 19.7711 21.523L19.7684 21.5244C19.6723 21.5843 19.6214 21.7082 19.6187 21.8934C19.6806 24.0512 24.2733 32.1671 30.8372 36.028C29.8784 38.4622 30.2328 40.4919 31.3413 42.4958C32.1009 43.8688 34.8902 46.686 37.4665 45.95C40.0434 45.2134 39.2316 38.0751 34.9947 36.6407C33.7831 36.2696 33.0179 37.0286 32.7471 38.0528C32.4908 39.0199 32.6099 40.2078 32.6921 40.7732C32.722 40.9793 32.6266 40.9208 32.5709 40.8303C31.0252 38.293 32.2019 36.0384 33.6453 35.5824C35.3303 35.0504 37.6273 36.2578 39.0157 38.5444C41.248 42.5396 40.1966 45.9229 38.4086 46.9924C35.1966 48.9559 29.9438 45.5295 28.8444 41.5036C28.4322 39.8297 28.6864 38.0973 29.3074 36.6881C19.9933 30.2112 17.903 24.1362 17.4894 21.0795C17.2652 19.0749 18.6432 18.6878 19.9912 19.5136Z" fill="#2C7493"/>
</svg>
